<svg xmlns="http://www.w3.org/2000/svg" id="Component_30_2" data-name="Component 30 &#x2013; 2" width="66.074" height="15.713" viewBox="0 0 66.074 15.713"><defs><style> .cls-1 { fill: #fff; } .cls-2 { opacity: 0; } .cls-3 { fill: #3f37c9; } </style></defs><g id="apple-music" transform="translate(-0.5 -0.5)"><path id="Path_35" data-name="Path 35" class="cls-1" d="M10.924,8.829a3.284,3.284,0,0,1,1.655-2.986A3.624,3.624,0,0,0,9.774,4.287,4.009,4.009,0,0,0,8.088,4.6a8.267,8.267,0,0,1-1.242.408,3.728,3.728,0,0,1-1.12-.346,3.787,3.787,0,0,0-1.41-.346,3.493,3.493,0,0,0-1.824.542A3.882,3.882,0,0,0,1.144,6.3,5.376,5.376,0,0,0,.5,9,8.84,8.84,0,0,0,.975,11.83,9.546,9.546,0,0,0,2.109,14.2a7.639,7.639,0,0,0,1.073,1.352,1.8,1.8,0,0,0,1.349.628A3.414,3.414,0,0,0,5.7,15.851a3.323,3.323,0,0,1,1.349-.3,3.22,3.22,0,0,1,1.3.3,3.352,3.352,0,0,0,1.226.315,2.029,2.029,0,0,0,1.319-.612,3.724,3.724,0,0,0,.467-.519q.292-.384.56-.786.223-.346.422-.707a7.111,7.111,0,0,0,.375-.8q.076-.173.138-.353c.041-.12.082-.243.122-.369a3.487,3.487,0,0,1-2.053-3.19Zm11.115,2.8h-.074L18.851,4.516H16.407V15.994h2.13V8.56h.1l2.6,5.9h1.494l2.593-5.9h.1v7.434h2.155V4.516H25.152ZM8.992,3.014A3.467,3.467,0,0,0,9.8.814V.657A.83.83,0,0,0,9.789.5a3,3,0,0,0-1.2.361,3.338,3.338,0,0,0-1.05.833,3.254,3.254,0,0,0-.828,2.122v.149a.8.8,0,0,0,.015.15,2.537,2.537,0,0,0,2.269-1.1Zm43.488,1.5h2.395V15.994H52.48ZM62.106,6.34a2.132,2.132,0,0,1,2.171,2.27h2.3V8.367c0-2.22-1.693-4.069-4.484-4.069-2.989,0-4.773,1.968-4.773,5.323v1.3c0,3.354,1.767,5.3,4.764,5.3,2.866,0,4.493-1.876,4.493-3.961V12h-2.3a2.035,2.035,0,0,1-2.154,2.17c-1.454,0-2.379-1.034-2.379-3.246V9.629c0-2.2.933-3.289,2.362-3.289ZM36.738,11.764a2.231,2.231,0,1,1-4.451,0V4.516H29.909V12.1c0,2.448,1.734,4.112,4.607,4.112s4.608-1.665,4.608-4.112V4.516H36.738v7.248ZM47.047,9.309l-1.709-.386C44.33,8.712,43.8,8.266,43.8,7.6c0-.883.718-1.438,1.875-1.438A1.781,1.781,0,0,1,47.691,7.72h2.23C49.9,5.693,48.2,4.281,45.684,4.281c-2.386,0-4.269,1.253-4.269,3.507,0,1.951,1.321,2.858,2.907,3.2l1.693.395c1.14.261,1.718.639,1.718,1.421,0,.892-.71,1.5-2.039,1.5-1.429,0-2.18-.757-2.246-1.607h-2.3c.034,1.623,1.107,3.515,4.427,3.515,2.791,0,4.517-1.387,4.517-3.642,0-2.085-1.4-2.9-3.048-3.262Z"></path></g><g id="apple-music-2" data-name="apple-music" class="cls-2" transform="translate(-0.5 -0.5)"><path id="Path_35-2" data-name="Path 35" class="cls-3" d="M10.924,8.829a3.284,3.284,0,0,1,1.655-2.986A3.624,3.624,0,0,0,9.774,4.287,4.009,4.009,0,0,0,8.088,4.6a8.267,8.267,0,0,1-1.242.408,3.728,3.728,0,0,1-1.12-.346,3.787,3.787,0,0,0-1.41-.346,3.493,3.493,0,0,0-1.824.542A3.882,3.882,0,0,0,1.144,6.3,5.376,5.376,0,0,0,.5,9,8.84,8.84,0,0,0,.975,11.83,9.546,9.546,0,0,0,2.109,14.2a7.639,7.639,0,0,0,1.073,1.352,1.8,1.8,0,0,0,1.349.628A3.414,3.414,0,0,0,5.7,15.851a3.323,3.323,0,0,1,1.349-.3,3.22,3.22,0,0,1,1.3.3,3.352,3.352,0,0,0,1.226.315,2.029,2.029,0,0,0,1.319-.612,3.724,3.724,0,0,0,.467-.519q.292-.384.56-.786.223-.346.422-.707a7.111,7.111,0,0,0,.375-.8q.076-.173.138-.353c.041-.12.082-.243.122-.369a3.487,3.487,0,0,1-2.053-3.19Zm11.115,2.8h-.074L18.851,4.516H16.407V15.994h2.13V8.56h.1l2.6,5.9h1.494l2.593-5.9h.1v7.434h2.155V4.516H25.152ZM8.992,3.014A3.467,3.467,0,0,0,9.8.814V.657A.83.83,0,0,0,9.789.5a3,3,0,0,0-1.2.361,3.338,3.338,0,0,0-1.05.833,3.254,3.254,0,0,0-.828,2.122v.149a.8.8,0,0,0,.015.15,2.537,2.537,0,0,0,2.269-1.1Zm43.488,1.5h2.395V15.994H52.48ZM62.106,6.34a2.132,2.132,0,0,1,2.171,2.27h2.3V8.367c0-2.22-1.693-4.069-4.484-4.069-2.989,0-4.773,1.968-4.773,5.323v1.3c0,3.354,1.767,5.3,4.764,5.3,2.866,0,4.493-1.876,4.493-3.961V12h-2.3a2.035,2.035,0,0,1-2.154,2.17c-1.454,0-2.379-1.034-2.379-3.246V9.629c0-2.2.933-3.289,2.362-3.289ZM36.738,11.764a2.231,2.231,0,1,1-4.451,0V4.516H29.909V12.1c0,2.448,1.734,4.112,4.607,4.112s4.608-1.665,4.608-4.112V4.516H36.738v7.248ZM47.047,9.309l-1.709-.386C44.33,8.712,43.8,8.266,43.8,7.6c0-.883.718-1.438,1.875-1.438A1.781,1.781,0,0,1,47.691,7.72h2.23C49.9,5.693,48.2,4.281,45.684,4.281c-2.386,0-4.269,1.253-4.269,3.507,0,1.951,1.321,2.858,2.907,3.2l1.693.395c1.14.261,1.718.639,1.718,1.421,0,.892-.71,1.5-2.039,1.5-1.429,0-2.18-.757-2.246-1.607h-2.3c.034,1.623,1.107,3.515,4.427,3.515,2.791,0,4.517-1.387,4.517-3.642,0-2.085-1.4-2.9-3.048-3.262Z"></path></g></svg>