<svg xmlns="http://www.w3.org/2000/svg" id="Component_31_2" data-name="Component 31 &#x2013; 2" width="64.353" height="20"><defs><style>.cls-1{fill:#fff}.cls-3{fill:#3f37c9}</style></defs><g id="logo-spotify"><path id="Path_31" data-name="Path 31" class="cls-1" d="M10 0a10 10 0 1010 10A10 10 0 0010 0zm4.555 14.451a.653.653 0 01-.9.2 9.737 9.737 0 00-5.239-1.384 13.29 13.29 0 00-3.4.437l-.056.016a.654.654 0 11-.386-1.25 14.255 14.255 0 013.841-.511 11.031 11.031 0 015.941 1.589.654.654 0 01.199.903zm1.3-2.766a.794.794 0 01-1.088.28 12.457 12.457 0 00-6.377-1.68 13.205 13.205 0 00-3.525.455l-.051.015a.794.794 0 11-.49-1.511A14.36 14.36 0 018.389 8.7a14.04 14.04 0 017.185 1.9.794.794 0 01.28 1.084zm.612-2.627A.949.949 0 0116 8.934a14.779 14.779 0 00-7.288-1.8 17.161 17.161 0 00-4.325.533l-.065.019a.953.953 0 01-.556-1.823 18.521 18.521 0 014.944-.635 16.678 16.678 0 018.225 2.046.953.953 0 01-.47 1.783zM34.75 7.482a3.4 3.4 0 00-3.15 3.644c0 2.012 1.238 3.644 3.153 3.644a3.453 3.453 0 003.223-3.644 3.453 3.453 0 00-3.226-3.644zm-.409 5.7a1.945 1.945 0 01-1.857-2.056 1.945 1.945 0 011.857-2.056 1.893 1.893 0 011.859 2.056 1.915 1.915 0 01-1.859 2.056z"></path><path id="Path_32" data-name="Path 32" class="cls-1" d="M164.6 40.17h1.775v1.343l-.4 1.308v1.822l.409 1.507v3.072h-1.8zm11.407-.17a3.644 3.644 0 103.706 3.644A3.675 3.675 0 00176.007 40zM176 45.745a2.09 2.09 0 111.97-2.087 2.031 2.031 0 01-1.97 2.087zm8.977-5.59h1.806v7.023h-1.806z" transform="translate(-133.829 -32.524)"></path><circle id="Ellipse_9" data-name="Ellipse 9" class="cls-1" cx="1.106" cy="1.106" r="1.106" transform="translate(50.977 4.547)"></circle><path id="Path_33" data-name="Path 33" class="cls-1" d="M260.123 28.832v7.342h-1.806v-7.146s-.16-2.584 2.258-2.532a4.541 4.541 0 011.292.234v1.507a3.245 3.245 0 00-1.059-.184.683.683 0 00-.685.779zm-7.654 5.137v-6.633h-1.806v6.892a1.929 1.929 0 002.258 2.054 2.7 2.7 0 001.292-.38v-1.463a2.364 2.364 0 01-1.059.265.662.662 0 01-.685-.735z" transform="translate(-203.821 -21.544)"></path><path id="Path_34" data-name="Path 34" class="cls-1" d="M162.484 30.735l-1.668 4.827-1.856-4.827h-5.308v1.557h4.048l2.227 5.264a.835.835 0 01-.825.747 2.153 2.153 0 01-.95-.312l-.607 1.308a3.368 3.368 0 001.682.514 2.477 2.477 0 002.289-1.744l2.819-7.335zm-16.5 0h4.443V32.3h-4.443zm-17.041.229a4.508 4.508 0 00-2.414-.934s-1.261-.065-1.324.888a1.02 1.02 0 00.851 1.034s2.244.668 2.808.942a2.368 2.368 0 011.293 2.353s.01 2.584-3.348 2.616a5.573 5.573 0 01-3.846-1.573l1.09-1.23a4.532 4.532 0 002.85 1.184s1.3.044 1.448-.934c0 0 .163-.867-1.074-1.152a20.409 20.409 0 01-2.538-.794 2.327 2.327 0 01-1.37-2.351s.067-2.645 3.27-2.6a5.113 5.113 0 013.27 1.215z" transform="translate(-99.983 -23.104)"></path></g></svg>